<svg width="24" height="24" viewBox="0 0 18 18" fill="none" xmlns="http://www.w3.org/2000/svg">
<path d="M7.24045 3.43985C7.89908 1.85338 10.1009 1.85338 10.7595 3.43985L11.2183 4.54487C11.488 5.19457 12.0802 5.64498 12.7671 5.72281L14.0472 5.86788C15.664 6.0511 16.3317 8.08162 15.151 9.22413L14.064 10.2759C13.5861 10.7383 13.375 11.4193 13.5051 12.0784L13.7676 13.4069C14.0998 15.0885 12.2982 16.3582 10.8764 15.4445L10.0178 14.8929C9.39573 14.4932 8.60427 14.4932 7.98218 14.8929L7.12364 15.4445C5.70175 16.3582 3.90023 15.0885 4.23243 13.4069L4.49486 12.0784C4.62505 11.4193 4.41388 10.7383 3.93598 10.2759L2.84903 9.22413C1.66829 8.08162 2.33604 6.0511 3.95276 5.86788L5.23294 5.72281C5.91978 5.64498 6.51197 5.19457 6.7817 4.54487L7.24045 3.43985Z" stroke="white" stroke-width="1.5" stroke-linecap="round" stroke-linejoin="round"/>
</svg>
