<svg width="32" height="32" viewBox="0 0 32 32" fill="none" xmlns="http://www.w3.org/2000/svg">
<circle cx="16" cy="16" r="15" stroke="#CCD2E3" stroke-width="2"/>
<path fill-rule="evenodd" clip-rule="evenodd" d="M11.0864 16.0691L9.384 14.7072C9.13517 15.4254 9 16.1967 9 16.9996C9 20.8656 12.134 23.9996 16 23.9996C19.866 23.9996 23 20.8656 23 16.9996C23 16.1967 22.8648 15.4254 22.616 14.7072L20.9136 16.0691C20.9703 16.3706 21 16.6816 21 16.9996C21 19.761 18.7614 21.9996 16 21.9996C13.2386 21.9996 11 19.761 11 16.9996C11 16.6816 11.0297 16.3706 11.0864 16.0691Z" fill="#CCD2E3"/>
<path d="M16 7L15.3753 6.21913L16 5.71937L16.6247 6.21913L16 7ZM17 16C17 16.5523 16.5523 17 16 17C15.4477 17 15 16.5523 15 16L17 16ZM10.3753 10.2191L15.3753 6.21913L16.6247 7.78087L11.6247 11.7809L10.3753 10.2191ZM16.6247 6.21913L21.6247 10.2191L20.3753 11.7809L15.3753 7.78087L16.6247 6.21913ZM17 7L17 16L15 16L15 7L17 7Z" fill="#CCD2E3"/>
</svg>
