<svg width="20" height="20" viewBox="0 0 20 20" fill="none" xmlns="http://www.w3.org/2000/svg">
<path d="M20 9.99994C20 15.5228 15.5229 20 10.0001 20C4.47715 20 0 15.5228 0 9.99994C0 4.47712 4.47715 0 10.0001 0C15.5228 0 20 4.47712 20 9.99994Z" fill="#D74F49"/>
<path d="M13.7369 10.6531C14.0425 10.1194 14.5357 10.1194 14.8413 10.6531L16.7446 14.0309C17.0502 14.5646 16.8001 15 16.1889 15H12.3546C11.7503 15 11.5002 14.5646 11.7989 14.0309L13.7369 10.6531ZM10.0554 4.15028C10.361 3.61657 10.8473 3.61657 11.1529 4.15028L11.5766 4.92275L12.5769 6.69944C12.82 7.20506 12.82 7.80197 12.5769 8.30758L9.22188 14.1854C8.91625 14.6629 8.40918 14.9649 7.84654 15H5.06113C4.44987 15 4.19981 14.5716 4.50544 14.0309L10.0554 4.15028Z" fill="white"/>
</svg>
