<svg width="20" height="20" viewBox="0 0 20 20" fill="none" xmlns="http://www.w3.org/2000/svg">
<path d="M20 9.99994C20 15.5228 15.5229 20 10.0001 20C4.47715 20 0 15.5228 0 9.99994C0 4.47712 4.47715 0 10.0001 0C15.5228 0 20 4.47712 20 9.99994Z" fill="#2C2E34"/>
<path fill-rule="evenodd" clip-rule="evenodd" d="M7.41133 8.93599L10.001 6.34747L12.5917 8.9381L14.0977 7.43111L10.001 3.3335L5.9043 7.43006L7.41133 8.93599Z" fill="#F4C547"/>
<path fill-rule="evenodd" clip-rule="evenodd" d="M3.33301 10.0005L4.83949 8.49405L6.34598 10.0005L4.83949 11.5069L3.33301 10.0005Z" fill="#F4C547"/>
<path fill-rule="evenodd" clip-rule="evenodd" d="M7.41148 11.0645L10.0011 13.6541L12.5919 11.0635L14.0989 12.5684L14.0978 12.5694L10.0011 16.667L5.90445 12.5715L5.90234 12.5694L7.41148 11.0645Z" fill="#F4C547"/>
<path fill-rule="evenodd" clip-rule="evenodd" d="M13.6523 10.0005L15.1588 8.49405L16.6653 10.0005L15.1588 11.5069L13.6523 10.0005Z" fill="#F4C547"/>
<path fill-rule="evenodd" clip-rule="evenodd" d="M11.529 9.99981L10.0009 8.4707L8.87089 9.60068L8.74031 9.73021L8.47281 9.9977L8.4707 9.99981L8.47281 10.003L10.0009 11.53L11.529 10.0009L11.5301 9.99981H11.529Z" fill="#F4C547"/>
</svg>
