<svg width="20" height="20" viewBox="0 0 20 20" fill="none" xmlns="http://www.w3.org/2000/svg">
<path d="M20 9.99994C20 15.5228 15.5229 20 10.0001 20C4.47715 20 0 15.5228 0 9.99994C0 4.47712 4.47715 0 10.0001 0C15.5228 0 20 4.47712 20 9.99994Z" fill="#2E6BF6"/>
<path d="M9.17285 4.48277C9.46162 4.33908 9.90101 4.33908 10.1898 4.48277L13.1364 5.94897C13.3103 6.03551 13.4058 6.16446 13.4229 6.29758H13.4257V13.6675C13.4219 13.8127 13.3255 13.9569 13.1364 14.051L10.1898 15.5172C9.90101 15.6609 9.46162 15.6609 9.17285 15.5172L6.22623 14.051C6.03791 13.9573 5.94754 13.8121 5.94307 13.6675C5.94262 13.6532 5.94257 13.6414 5.943 13.6315L5.94298 6.34491C5.94268 6.33693 5.94265 6.32896 5.94289 6.32103L5.94307 6.29758L5.94439 6.29757C5.95748 6.16299 6.04865 6.03733 6.22623 5.94897L9.17285 4.48277ZM12.9619 10.4092L10.1898 11.7886C9.90101 11.9323 9.46162 11.9323 9.17285 11.7886L6.40681 10.4123V13.6529L9.17285 15.022C9.32904 15.1006 9.49115 15.1773 9.64967 15.187L9.68132 15.188C9.84649 15.1885 10.0069 15.1095 10.1695 15.0347L12.9619 13.6411V10.4092ZM5.4638 13.5073C5.4638 13.7896 5.49864 13.9752 5.5678 14.106C5.62513 14.2143 5.71114 14.2971 5.8682 14.3979L5.87717 14.4037C5.91163 14.4255 5.9496 14.4485 5.99582 14.4754L6.05032 14.5068L6.21769 14.602L5.97765 14.9759L5.79032 14.8693L5.75883 14.8511C5.70466 14.8195 5.65977 14.7926 5.6179 14.7659C5.17028 14.4816 5.00334 14.1717 5.00005 13.5269L5 13.5073H5.4638ZM9.44935 8.43385C9.4279 8.44079 9.40779 8.44882 9.38946 8.45794L6.44284 9.92415C6.43975 9.92569 6.4368 9.92721 6.43399 9.92871L6.4315 9.93008L6.43612 9.93257L6.44284 9.936L9.38946 11.4022C9.40779 11.4113 9.4279 11.4194 9.44935 11.4263V8.43385ZM9.91329 8.43385V11.4263C9.93474 11.4194 9.95485 11.4113 9.97317 11.4022L12.9198 9.936C12.9229 9.93447 12.9258 9.93295 12.9286 9.93144L12.9311 9.93008L12.9265 9.92758L12.9198 9.92415L9.97317 8.45794C9.95485 8.44882 9.93474 8.44079 9.91329 8.43385ZM12.9619 6.82038L10.3186 8.13566L12.9619 9.45094V6.82038ZM6.40681 6.82345V9.44786L9.04397 8.13566L6.40681 6.82345ZM9.97317 4.86913C9.81994 4.79289 9.5427 4.79289 9.38946 4.86913L6.44284 6.33534C6.43975 6.33688 6.4368 6.3384 6.43399 6.33991L6.4315 6.34127L6.43612 6.34376L6.44284 6.3472L9.38946 7.81341C9.5427 7.88965 9.81994 7.88965 9.97317 7.81341L12.9198 6.3472C12.9229 6.34566 12.9258 6.34414 12.9286 6.34263L12.9311 6.34127L12.9265 6.33877L12.9198 6.33534L9.97317 4.86913ZM13.3974 5.02992L13.5847 5.1365L13.6162 5.15472C13.6703 5.18621 13.7152 5.21327 13.7571 5.23987C14.2047 5.52417 14.3717 5.83413 14.3749 6.47893L14.375 6.49857H13.9112C13.9112 6.2162 13.8764 6.03061 13.8072 5.89986C13.7499 5.79149 13.6639 5.70867 13.5068 5.60789L13.4978 5.60217C13.4634 5.58028 13.4254 5.55735 13.3792 5.53039L13.3247 5.49894L13.1573 5.40379L13.3974 5.02992Z" fill="white"/>
</svg>
