<svg width="20" height="20" viewBox="0 0 20 20" fill="none" xmlns="http://www.w3.org/2000/svg">
<circle cx="10" cy="10" r="10" fill="white"/>
<path d="M4.15605 9.50604C4.15607 9.39421 4.17814 9.28347 4.22099 9.1802C4.26385 9.07694 4.32664 8.98316 4.40576 8.90427C4.48488 8.82539 4.57878 8.76293 4.68206 8.7205C4.78534 8.67807 4.89597 8.65649 5.0076 8.65702L6.41938 8.66164C6.64448 8.66164 6.86037 8.75123 7.01954 8.9107C7.17871 9.07017 7.26813 9.28646 7.26813 9.51198V14.8607C7.42714 14.8135 7.63063 14.7631 7.85456 14.7103C8.0097 14.6737 8.14796 14.5857 8.24693 14.4606C8.34589 14.3354 8.39976 14.1804 8.3998 14.0208V7.38653C8.3998 7.16099 8.48922 6.94468 8.64838 6.78518C8.80755 6.62569 9.02343 6.53606 9.24855 6.53601H10.6646C10.8897 6.53606 11.1056 6.62569 11.2648 6.78518C11.4239 6.94468 11.5134 7.16099 11.5134 7.38653V13.5442C11.5134 13.5442 11.8676 13.4005 12.2125 13.2546C12.3406 13.2003 12.45 13.1094 12.5269 12.9932C12.6038 12.8771 12.6449 12.7408 12.645 12.6014V5.26058C12.645 5.03508 12.7344 4.81881 12.8936 4.65935C13.0527 4.49988 13.2685 4.41027 13.4936 4.41023H14.9082C15.1332 4.41045 15.3488 4.50013 15.5078 4.65958C15.6668 4.81903 15.7561 5.03519 15.7561 5.26058V11.3055C16.9825 10.415 18.2254 9.34393 19.2118 8.05611C19.3549 7.86917 19.4495 7.64966 19.4874 7.41714C19.5252 7.18463 19.505 6.94634 19.4286 6.72355C18.972 5.40752 18.2463 4.20148 17.2978 3.18259C16.3493 2.1637 15.1989 1.35441 13.9203 0.806507C12.6417 0.258602 11.263 -0.0158526 9.87247 0.000707133C8.48192 0.0172668 7.11014 0.324475 5.8449 0.902674C4.57966 1.48087 3.44883 2.31733 2.52477 3.35852C1.60071 4.3997 0.903764 5.62269 0.478541 6.94922C0.0533172 8.27576 -0.0908231 9.67662 0.0553426 11.0622C0.201508 12.4477 0.634762 13.7874 1.32738 14.9956C1.44805 15.204 1.62558 15.3736 1.83912 15.4844C2.05266 15.5952 2.29333 15.6427 2.53286 15.6213C2.80045 15.5976 3.13363 15.5643 3.52974 15.5177C3.70214 15.4981 3.86131 15.4156 3.97692 15.286C4.09254 15.1564 4.15653 14.9887 4.15671 14.8148V9.50604" fill="#265987"/>
<path d="M4.12573 18.0841C5.6168 19.1708 7.37889 19.8232 9.21704 19.9689C11.0552 20.1146 12.8977 19.748 14.5408 18.9097C16.1839 18.0713 17.5635 16.7939 18.527 15.2188C19.4905 13.6437 20.0002 11.8322 19.9999 9.98487C19.9999 9.75375 19.9892 9.52626 19.9738 9.29944C16.322 14.7563 9.57908 17.3073 4.12573 18.0841" fill="#979695"/>
</svg>
