<svg width="28" height="28" viewBox="0 0 28 28" fill="none" xmlns="http://www.w3.org/2000/svg">
<circle cx="14" cy="14" r="14" fill="white"/>
<path d="M14.0007 15.0883C11.5598 15.0883 9.51427 14.3712 8.9558 13.4044C8.85761 13.5746 8.80029 13.7514 8.80029 13.9349V15.517C8.80029 16.7393 11.1293 17.7309 14.0007 17.7309C16.874 17.7309 19.2038 16.7393 19.2038 15.517V13.9349C19.2038 13.7514 19.1456 13.5746 19.0466 13.4044C18.4881 14.3708 16.4443 15.0883 14.0007 15.0883Z" fill="#674DF6"/>
<path d="M14.0007 18.3564C11.5598 18.3564 9.51427 17.6385 8.9558 16.6735C8.85761 16.8427 8.80029 17.0196 8.80029 17.2026V18.7861C8.80029 20.0088 11.1293 21 14.0007 21C16.874 21 19.2038 20.0092 19.2038 18.7861V17.2026C19.2038 17.0196 19.1456 16.8427 19.0466 16.6739C18.4881 17.6385 16.4443 18.3564 14.0007 18.3564Z" fill="#674DF6"/>
<path d="M19.0617 10.2401C18.9595 11.1358 16.7371 11.8525 14.0007 11.8525C11.2657 11.8525 9.04332 11.1358 8.94158 10.2406C8.85228 10.4032 8.80029 10.5729 8.80029 10.7475V12.3296C8.80029 13.5523 11.1293 14.5435 14.0007 14.5435C16.874 14.5435 19.2038 13.5528 19.2038 12.3296V10.7475C19.2038 10.5729 19.151 10.4032 19.0617 10.2401Z" fill="#674DF6"/>
<path d="M14.0007 11.3504C16.8011 11.3504 19.0701 10.6009 19.0701 9.67498C19.0701 8.74997 16.8011 8 14.0007 8C11.2021 8.00044 8.93225 8.75041 8.93225 9.67543C8.93225 10.6009 11.2021 11.3504 14.0007 11.3504Z" fill="#674DF6"/>
</svg>
