<svg width="32" height="32" viewBox="0 0 32 32" fill="none" xmlns="http://www.w3.org/2000/svg">
<path d="M11.5486 13.2052C11.4975 11.4216 11.5422 9.60132 11.5904 8.36154C12.6882 8.93965 14.287 9.81109 15.8061 10.7471C16.755 11.3319 17.6557 11.9315 18.3782 12.4921C19.1321 13.0772 19.583 13.5385 19.7532 13.8332C19.9234 14.1279 20.0974 14.7491 20.2271 15.6946C20.3514 16.6005 20.4203 17.6804 20.4522 18.7945C20.5034 20.5781 20.4586 22.3984 20.4104 23.6382C19.3126 23.0601 17.7138 22.1886 16.1948 21.2526C15.2459 20.6678 14.3451 20.0683 13.6227 19.5076C12.8687 18.9225 12.4178 18.4612 12.2476 18.1665C12.0775 17.8718 11.9034 17.2506 11.7737 16.3051C11.6494 15.3992 11.5806 14.3193 11.5486 13.2052Z" stroke="#CCD2E3" stroke-width="2"/>
<circle cx="16" cy="16" r="15" stroke="#CCD2E3" stroke-width="2"/>
</svg>
