<svg width="24" height="25" viewBox="0 0 24 25" fill="none" xmlns="http://www.w3.org/2000/svg">
<path d="M9.94854 11.3653C9.91805 10.6026 9.92366 9.80477 9.94029 9.13927C10.5343 9.45785 11.2393 9.85196 11.8955 10.2593C12.3751 10.5571 12.8118 10.8516 13.1541 11.1203C13.5239 11.4105 13.6874 11.5973 13.7286 11.6676C13.7699 11.738 13.8526 11.9707 13.9231 12.4309C13.9884 12.8569 14.0293 13.3762 14.0516 13.9339C14.0821 14.6966 14.0765 15.4944 14.0599 16.1599C13.4658 15.8413 12.7608 15.4472 12.1047 15.0399C11.625 14.7421 11.1884 14.4475 10.846 14.1789C10.4763 13.8887 10.3128 13.7019 10.2715 13.6316C10.2302 13.5612 10.1475 13.3285 10.077 12.8683C10.0117 12.4423 9.97083 11.923 9.94854 11.3653Z" stroke="#CCD2E3" stroke-width="2"/>
<ellipse cx="12" cy="12.6497" rx="9" ry="8.85539" stroke="#CCD2E3" stroke-width="2"/>
</svg>
