<svg width="42" height="42" viewBox="0 0 42 42" fill="none" xmlns="http://www.w3.org/2000/svg">
<path d="M16.625 17.5005C16.625 16.1153 14.7826 15.7482 14.2938 17.0442C13.1115 20.1794 12.25 22.984 12.25 24.5004C12.25 29.3329 16.1675 33.2504 21 33.2504C25.8325 33.2504 29.75 29.3329 29.75 24.5004C29.75 22.8713 28.7556 19.7552 27.4373 16.3397C25.7295 11.9154 24.8756 9.70321 23.8216 9.58406C23.4843 9.54593 23.1163 9.61448 22.8154 9.7715C21.875 10.2622 21.875 12.675 21.875 17.5005C21.875 18.9503 20.6997 20.1255 19.25 20.1255C17.8003 20.1255 16.625 18.9503 16.625 17.5005Z" stroke="url(#paint0_linear)" stroke-width="2"/>
<defs>
<linearGradient id="paint0_linear" x1="12.25" y1="21.4121" x2="29.75" y2="21.4121" gradientUnits="userSpaceOnUse">
<stop stop-color="#6F45FF"/>
<stop offset="1" stop-color="#FF6365"/>
</linearGradient>
</defs>
</svg>
