<svg width="32" height="32" viewBox="0 0 32 32" fill="none" xmlns="http://www.w3.org/2000/svg">
<circle cx="16" cy="16" r="15" stroke="url(#paint0_linear)" stroke-width="2"/>
<path d="M12.3124 7.42952C12.0567 7.3901 12.0459 7.38548 12.1662 7.3671C12.3968 7.33185 12.9413 7.37989 13.3165 7.46855C14.1924 7.6755 14.9895 8.20562 15.8403 9.14712L16.0663 9.39724L16.3896 9.34557C17.7518 9.128 19.1376 9.30092 20.2967 9.8331C20.6155 9.97951 21.1183 10.271 21.1811 10.3458C21.2011 10.3697 21.2378 10.5233 21.2627 10.6873C21.3488 11.2545 21.3057 11.6893 21.1312 12.014C21.0362 12.1907 21.0309 12.2467 21.0948 12.3979C21.1458 12.5186 21.2879 12.6079 21.4286 12.6077C21.7166 12.6073 22.0266 12.1446 22.1703 11.5006L22.2274 11.2449L22.3404 11.3721C22.9604 12.0703 23.4474 13.0225 23.5311 13.7002L23.5528 13.8769L23.4487 13.7163C23.2693 13.4399 23.089 13.2517 22.8583 13.0999C22.4422 12.8263 22.0024 12.7332 20.8376 12.6722C19.7854 12.6171 19.19 12.5278 18.5996 12.3364C17.595 12.0109 17.0886 11.5774 15.8953 10.0213C15.3653 9.33016 15.0377 8.94776 14.7118 8.63981C13.9713 7.94007 13.2438 7.5731 12.3124 7.42952Z" fill="white"/>
<path d="M21.418 8.97262C21.4445 8.50949 21.5076 8.20402 21.6347 7.92504C21.685 7.81462 21.7321 7.72424 21.7394 7.72424C21.7466 7.72424 21.7247 7.80574 21.6907 7.90535C21.5984 8.17609 21.5832 8.54641 21.6468 8.97726C21.7276 9.52393 21.7735 9.6028 22.3549 10.1933C22.6276 10.4703 22.9448 10.8196 23.0597 10.9696L23.2688 11.2423L23.0597 11.0474C22.804 10.8091 22.2161 10.3443 22.0863 10.2778C21.9991 10.2333 21.9862 10.2341 21.9325 10.2872C21.883 10.3362 21.8725 10.4097 21.8657 10.7576C21.855 11.2997 21.7806 11.6476 21.6013 11.9955C21.5042 12.1837 21.4888 12.1436 21.5767 11.9312C21.6422 11.7726 21.6489 11.7029 21.6485 11.1781C21.6474 10.1236 21.5215 9.87014 20.7829 9.43589C20.5958 9.32588 20.2874 9.16723 20.0977 9.08331C19.908 8.99939 19.7574 8.9263 19.7628 8.92083C19.7838 8.90015 20.504 9.10911 20.794 9.21996C21.2253 9.38483 21.2964 9.40621 21.3488 9.38631C21.384 9.37298 21.401 9.27135 21.418 8.97262Z" fill="white"/>
<path d="M12.8087 10.7766C12.2896 10.0664 11.9685 8.97737 12.038 8.1633L12.0595 7.91138L12.1776 7.93281C12.3995 7.97302 12.7821 8.11455 12.9612 8.2227C13.4528 8.51943 13.6657 8.91012 13.8822 9.91334C13.9456 10.2072 14.0288 10.5397 14.0671 10.6523C14.1287 10.8335 14.3617 11.2568 14.551 11.5317C14.6874 11.7296 14.5968 11.8235 14.2953 11.7964C13.8348 11.7551 13.2111 11.3272 12.8087 10.7766Z" fill="white"/>
<path d="M20.7886 16.0627C18.3629 15.092 17.5085 14.2494 17.5085 12.8277C17.5085 12.6184 17.5158 12.4473 17.5246 12.4473C17.5335 12.4473 17.6273 12.5163 17.7332 12.6007C18.2251 12.9928 18.7759 13.1603 20.3008 13.3814C21.1982 13.5116 21.7031 13.6167 22.169 13.7702C23.6495 14.2582 24.5655 15.2486 24.784 16.5976C24.8475 16.9896 24.8102 17.7247 24.7073 18.1121C24.6261 18.4181 24.3781 18.9696 24.3123 18.9908C24.2941 18.9967 24.2763 18.9272 24.2715 18.8327C24.2467 18.3261 23.9891 17.833 23.5566 17.4636C23.0648 17.0436 22.4042 16.7092 20.7886 16.0627Z" fill="white"/>
<path d="M19.0857 16.466C19.0553 16.2863 19.0026 16.0567 18.9686 15.9559L18.9067 15.7726L19.0217 15.9008C19.1808 16.0783 19.3065 16.3054 19.413 16.6079C19.4944 16.8388 19.5035 16.9075 19.5029 17.2826C19.5023 17.6509 19.4921 17.7282 19.417 17.936C19.2986 18.2636 19.1517 18.496 18.9051 18.7454C18.462 19.1937 17.8923 19.4418 17.0701 19.5447C16.9272 19.5625 16.5107 19.5927 16.1446 19.6116C15.2218 19.6594 14.6144 19.7579 14.0687 19.9484C13.9902 19.9758 13.9202 19.9925 13.913 19.9854C13.891 19.9635 14.2625 19.7434 14.5694 19.5964C15.0022 19.3892 15.433 19.2762 16.3981 19.1164C16.8749 19.0374 17.3673 18.9417 17.4923 18.9036C18.6731 18.5438 19.28 17.6153 19.0857 16.466Z" fill="white"/>
<path d="M20.1977 18.4288C19.8754 17.7402 19.8014 17.0754 19.9779 16.4553C19.9968 16.3891 20.0272 16.3348 20.0455 16.3348C20.0637 16.3348 20.1398 16.3757 20.2145 16.4256C20.363 16.525 20.6609 16.6924 21.4544 17.1224C22.4447 17.659 23.0093 18.0745 23.3933 18.5493C23.7296 18.965 23.9376 19.4386 24.0378 20.016C24.0945 20.343 24.0612 21.13 23.9767 21.4593C23.7105 22.4978 23.0917 23.3135 22.2092 23.7895C22.0799 23.8592 21.9638 23.9165 21.9512 23.9168C21.9386 23.917 21.9858 23.7979 22.0559 23.6522C22.3528 23.0353 22.3866 22.4353 22.1621 21.7674C22.0247 21.3584 21.7444 20.8594 21.1787 20.016C20.5207 19.0355 20.3595 18.7746 20.1977 18.4288Z" fill="white"/>
<path d="M11.0861 22.1442C11.9863 21.3888 13.1064 20.8521 14.1266 20.6873C14.5663 20.6164 15.2988 20.6445 15.706 20.7481C16.3586 20.9141 16.9424 21.286 17.2461 21.729C17.5428 22.1619 17.6701 22.5392 17.8026 23.3787C17.8549 23.7099 17.9118 24.0423 17.929 24.1177C18.0286 24.5527 18.2223 24.9004 18.4623 25.0751C18.8435 25.3525 19.5 25.3696 20.1458 25.1193C20.2554 25.0768 20.3505 25.0474 20.3572 25.0541C20.3807 25.0772 20.0555 25.2935 19.8261 25.4074C19.5174 25.5607 19.2719 25.62 18.9458 25.62C18.3543 25.62 17.8632 25.321 17.4535 24.7111C17.3729 24.5911 17.1916 24.2317 17.0507 23.9123C16.6181 22.9316 16.4045 22.6329 15.9022 22.3059C15.465 22.0215 14.9013 21.9705 14.4772 22.1771C13.9201 22.4487 13.7646 23.1562 14.1636 23.6047C14.3222 23.7829 14.618 23.9365 14.8598 23.9665C15.3122 24.0225 15.701 23.6804 15.701 23.2264C15.701 22.9316 15.587 22.7634 15.3 22.6347C14.9081 22.4589 14.4868 22.6644 14.4888 23.0303C14.4897 23.1864 14.558 23.2843 14.7154 23.3552C14.8164 23.4006 14.8187 23.4041 14.7364 23.3871C14.3768 23.313 14.2925 22.8821 14.5817 22.5961C14.9288 22.2527 15.6466 22.4042 15.8932 22.873C15.9967 23.0699 16.0087 23.462 15.9184 23.6987C15.7164 24.2287 15.1272 24.5073 14.5295 24.3557C14.1226 24.2524 13.9569 24.1406 13.4662 23.6384C12.6137 22.7655 12.2827 22.5963 11.0536 22.4057L10.8181 22.3691L11.0861 22.1442Z" fill="white"/>
<path fill-rule="evenodd" clip-rule="evenodd" d="M7.08605 6.52209C9.93315 9.95658 11.8941 11.3736 12.112 11.673C12.2919 11.9202 12.2242 12.1424 11.916 12.3166C11.7446 12.4134 11.3921 12.5115 11.2157 12.5115C11.0161 12.5115 10.9476 12.435 10.9476 12.435C10.8319 12.3259 10.7667 12.345 10.1725 11.2967C9.34755 10.0244 8.65715 8.96893 8.63832 8.95125C8.59477 8.91039 8.59552 8.91177 10.0884 11.5667C10.3296 12.12 10.1364 12.3231 10.1364 12.4019C10.1364 12.5622 10.0924 12.6465 9.89339 12.8671C9.56167 13.2349 9.41338 13.6482 9.30634 14.5035C9.18635 15.4623 8.84891 16.1395 7.91378 17.2987C7.36638 17.9772 7.27681 18.1016 7.13869 18.3751C6.96471 18.7194 6.91687 18.9123 6.89748 19.3472C6.87699 19.807 6.9169 20.1041 7.05824 20.5437C7.18198 20.9286 7.31114 21.1827 7.64133 21.691C7.92628 22.1296 8.09035 22.4556 8.09035 22.5832C8.09035 22.6846 8.10984 22.6847 8.5514 22.5856C9.60809 22.3485 10.4661 21.9314 10.9487 21.4201C11.2473 21.1037 11.3175 20.929 11.3197 20.4955C11.3212 20.2119 11.3112 20.1525 11.2341 19.9893C11.1085 19.7238 10.8799 19.503 10.3762 19.1608C9.71607 18.7123 9.43413 18.3512 9.35627 17.8546C9.29237 17.4472 9.36649 17.1598 9.73166 16.3991C10.1096 15.6117 10.2033 15.2762 10.2666 14.4825C10.3076 13.9698 10.3642 13.7676 10.5125 13.6053C10.6671 13.436 10.8062 13.3787 11.1888 13.3267C11.8125 13.2421 12.2097 13.0817 12.5361 12.7827C12.8193 12.5233 12.9378 12.2734 12.956 11.8971L12.9698 11.612L12.8115 11.4286C12.2384 10.7644 6.70224 6 6.66697 6C6.65943 6 6.84803 6.23496 7.08605 6.52209ZM8.41207 19.8675C8.54165 19.6394 8.47279 19.3462 8.25605 19.2029C8.05126 19.0676 7.73311 19.1314 7.73311 19.3077C7.73311 19.3616 7.76305 19.4007 7.83054 19.4353C7.94417 19.4933 7.95242 19.5587 7.86301 19.6923C7.77247 19.8275 7.77978 19.9465 7.88364 20.0273C8.05103 20.1575 8.28797 20.0859 8.41207 19.8675Z" fill="white"/>
<path fill-rule="evenodd" clip-rule="evenodd" d="M13.3634 13.4763C13.0706 13.5657 12.786 13.8741 12.6979 14.1975C12.6441 14.3948 12.6746 14.7409 12.7551 14.8478C12.8852 15.0204 13.011 15.0659 13.3515 15.0635C14.0183 15.0589 14.598 14.7747 14.6654 14.4193C14.7207 14.1281 14.4661 13.7244 14.1154 13.5472C13.9344 13.4558 13.5496 13.4195 13.3634 13.4763ZM14.1429 14.0821C14.2457 13.9369 14.2007 13.7799 14.0259 13.6738C13.6928 13.4717 13.1892 13.6389 13.1892 13.9516C13.1892 14.1073 13.4518 14.2771 13.6925 14.2771C13.8528 14.2771 14.0721 14.1822 14.1429 14.0821Z" fill="white"/>
<defs>
<linearGradient id="paint0_linear" x1="0" y1="16" x2="32" y2="16" gradientUnits="userSpaceOnUse">
<stop stop-color="#6F45FF"/>
<stop offset="1" stop-color="#FF6365"/>
</linearGradient>
</defs>
</svg>
