<svg width="28" height="28" viewBox="0 0 28 28" fill="none" xmlns="http://www.w3.org/2000/svg">
<circle cx="14" cy="14" r="14" fill="white"/>
<path d="M11.4294 12.38C11.3938 11.3912 11.4068 10.3633 11.4307 9.54966C12.1473 9.93574 13.044 10.4385 13.8825 10.9637C14.4619 11.3265 14.9967 11.6898 15.4195 12.0242C15.8706 12.3809 16.0954 12.6292 16.1651 12.7499C16.2348 12.8705 16.3374 13.1894 16.4208 13.7584C16.499 14.2917 16.5461 14.9366 16.5707 15.6198C16.6063 16.6085 16.5933 17.6364 16.5694 18.4501C15.8528 18.064 14.9561 17.5613 14.1176 17.0361C13.5382 16.6732 13.0034 16.3099 12.5805 15.9756C12.1295 15.6189 11.9046 15.3705 11.835 15.2499C11.7653 15.1292 11.6627 14.8103 11.5793 14.2413C11.5011 13.708 11.454 13.0632 11.4294 12.38Z" stroke="url(#paint0_linear)" stroke-width="2"/>
<defs>
<linearGradient id="paint0_linear" x1="10.5" y1="7.93768" x2="17.5" y2="20.062" gradientUnits="userSpaceOnUse">
<stop stop-color="#6F45FF"/>
<stop offset="1" stop-color="#FF6365"/>
</linearGradient>
</defs>
</svg>
