<svg width="46" height="46" viewBox="0 0 46 46" fill="none" xmlns="http://www.w3.org/2000/svg">
<g clip-path="url(#clip0)">
<path d="M9.58327 4.40833L45.2333 28.75L36.4166 41.7833L0.766602 17.25L9.58327 4.40833Z" fill="url(#paint0_linear)"/>
<path d="M45.2333 28.75C42.1666 33.1583 31.8166 31.4333 22.0416 24.5333C12.0749 17.825 6.70826 8.81664 9.58326 4.40831C12.6499 -2.71797e-05 22.9999 1.72497 32.7749 8.62497C42.7416 15.1416 48.1083 24.3416 45.2333 28.75Z" fill="url(#paint1_linear)"/>
<path d="M36.4166 41.5916C33.35 45.9999 23 44.2749 13.225 37.3749C3.44997 30.4749 -2.10837 21.6583 0.958298 17.0583C4.02496 12.6499 14.375 14.3749 24.15 21.2749C33.925 28.1749 39.2916 37.1833 36.4166 41.5916Z" fill="url(#paint2_linear)"/>
<path d="M45.2333 28.7499L36.4166 41.7833C33.3499 46.1916 22.9999 44.2749 13.2249 37.5666C11.3083 36.2249 9.58328 34.8833 7.85828 33.3499C9.19994 33.1583 10.9249 32.3916 12.6499 30.4749C15.7166 27.2166 17.2499 26.4499 18.5916 26.6416C19.9333 26.6416 21.4666 27.9833 23.9583 31.2416C26.4499 34.4999 29.8999 35.4583 32.0083 33.7333C32.1999 33.5416 32.3916 33.5416 32.5833 33.3499C34.3083 32.0083 34.8833 31.4333 38.1416 25.2999C38.9083 23.7666 41.5916 21.2749 45.2333 22.4249C46.1916 24.9166 46.1916 27.0249 45.2333 28.7499Z" fill="#0E0F23"/>
<path fill-rule="evenodd" clip-rule="evenodd" d="M43.8917 27.9833C41.2084 31.8167 31.8167 29.9 22.8084 23.575C13.6084 17.25 8.2417 9.19999 10.925 5.36666C13.6084 1.53333 23 3.44999 32.0084 9.77499C41.0167 16.1 46.3834 24.15 43.8917 27.9833ZM35.4584 22.2333C34.1167 24.15 29.5167 23.1917 24.9167 20.125C20.5084 17.0583 17.825 13.0333 19.1667 11.1167C20.5084 9.19999 25.1084 10.1583 29.7084 13.225C34.1167 16.2917 36.8 20.3167 35.4584 22.2333Z" fill="white"/>
<path d="M8.81659 8.81665C8.81659 8.62498 8.62493 8.43332 8.43326 8.62498C8.24159 8.81665 8.04993 8.81665 8.04993 9.00832C8.24159 9.58332 8.43326 9.96665 8.43326 10.35C8.43326 10.5417 8.62493 10.7333 8.81659 10.5417C9.00826 10.5417 9.19993 10.35 9.00826 10.1583C9.00826 9.77498 9.00826 9.39165 8.81659 8.81665Z" fill="white"/>
<path d="M9.77495 11.8833C9.77495 11.6916 9.58328 11.5 9.39162 11.6916C9.19995 11.8833 9.19995 11.8833 9.19995 12.075C11.3083 16.8666 15.7166 22.0416 21.4666 25.875C21.6583 26.0666 21.85 25.875 22.0416 25.875C22.2333 25.6833 22.0416 25.4916 22.0416 25.3C16.1 21.4666 11.8833 16.4833 9.77495 11.8833Z" fill="white"/>
<path d="M32.9666 30.6667C32.7749 30.6667 32.5833 30.6667 32.5833 30.8584C32.5833 31.05 32.5833 31.2417 32.7749 31.2417C33.3499 31.4334 34.1166 31.625 34.6916 31.8167C34.8833 31.8167 35.0749 31.8167 35.0749 31.625C35.0749 31.4334 35.0749 31.2417 34.8833 31.2417C34.3083 31.05 33.5416 30.8584 32.9666 30.6667Z" fill="white"/>
<path d="M36.4167 31.4333C36.225 31.4333 36.0333 31.625 36.0333 31.8166C36.0333 32.0083 36.225 32.2 36.4167 32.2C37.95 32.3916 39.675 32.5833 41.0167 32.3916C41.2083 32.3916 41.4 32.2 41.4 32.0083C41.4 31.8166 41.2083 31.625 41.0167 31.625C39.4833 31.8166 37.95 31.625 36.4167 31.4333Z" fill="white"/>
</g>
<defs>
<linearGradient id="paint0_linear" x1="16.568" y1="0.9474" x2="23.6378" y2="25.2243" gradientUnits="userSpaceOnUse">
<stop stop-color="#03B8FF"/>
<stop offset="1" stop-color="#FA52A0"/>
</linearGradient>
<linearGradient id="paint1_linear" x1="22.39" y1="-0.748294" x2="29.4601" y2="23.5288" gradientUnits="userSpaceOnUse">
<stop stop-color="#03B8FF"/>
<stop offset="1" stop-color="#FA52A0"/>
</linearGradient>
<linearGradient id="paint2_linear" x1="10.764" y1="2.63746" x2="17.834" y2="26.9145" gradientUnits="userSpaceOnUse">
<stop stop-color="#03B8FF"/>
<stop offset="1" stop-color="#FA52A0"/>
</linearGradient>
<clipPath id="clip0">
<rect width="46" height="46" fill="white"/>
</clipPath>
</defs>
</svg>
