<svg width="41" height="44" viewBox="0 0 41 44" fill="none" xmlns="http://www.w3.org/2000/svg">
<path d="M12.7027 3.16491C12.1274 3.07765 12.1032 3.06741 12.3739 3.02672C12.8927 2.94869 14.1178 3.05504 14.962 3.25133C16.9328 3.70947 18.7261 4.88307 20.6404 6.96741L21.149 7.52115L21.8765 7.40676C24.9415 6.92509 28.0594 7.30791 30.6673 8.48606C31.3847 8.81019 32.516 9.4554 32.6574 9.6212C32.7024 9.67403 32.785 10.0142 32.8409 10.3771C33.0346 11.6328 32.9376 12.5953 32.5451 13.3142C32.3313 13.7054 32.3193 13.8294 32.4631 14.1642C32.5778 14.4314 32.8975 14.6291 33.2142 14.6287C33.8621 14.6278 34.5596 13.6033 34.883 12.1777L35.0115 11.6115L35.2657 11.8932C36.6607 13.4389 37.7565 15.5468 37.9447 17.0473L37.9936 17.4385L37.7593 17.0829C37.3558 16.4709 36.9501 16.0543 36.431 15.7183C35.4948 15.1126 34.5052 14.9065 31.8843 14.7714C29.517 14.6494 28.1773 14.4517 26.8488 14.0281C24.5885 13.3074 23.4491 12.3476 20.7642 8.90272C19.5717 7.37263 18.8346 6.52607 18.1014 5.84431C16.4353 4.2952 14.7983 3.48278 12.7027 3.16491Z" fill="#EF6077"/>
<path d="M33.1907 6.5811C33.2504 5.5558 33.3923 4.87952 33.6784 4.26191C33.7916 4.01746 33.8974 3.81738 33.9139 3.81738C33.9301 3.81738 33.8809 3.99781 33.8044 4.21833C33.5967 4.8177 33.5624 5.63753 33.7056 6.59137C33.8873 7.8016 33.9907 7.97622 35.2989 9.28353C35.9122 9.89675 36.626 10.6701 36.8845 11.0021L37.355 11.6059L36.8845 11.1744C36.3093 10.6468 34.9865 9.61777 34.6943 9.47067C34.4982 9.37203 34.4692 9.37375 34.3483 9.49138C34.237 9.59977 34.2134 9.76265 34.1981 10.5327C34.174 11.7328 34.0066 12.5032 33.6031 13.2734C33.3847 13.69 33.3501 13.6011 33.5477 13.1309C33.6952 12.7798 33.7102 12.6254 33.7093 11.4636C33.7068 9.12927 33.4235 8.56806 31.7617 7.6067C31.3408 7.36315 30.647 7.01194 30.2202 6.82615C29.7933 6.64037 29.4543 6.47855 29.4666 6.46645C29.5137 6.42066 31.1343 6.88325 31.7868 7.12867C32.7572 7.49367 32.9172 7.54099 33.035 7.49695C33.1142 7.46742 33.1525 7.24245 33.1907 6.5811Z" fill="#EF6077"/>
<path d="M13.8197 10.5748C12.6518 9.0024 11.9292 6.59152 12.0857 4.78928L12.134 4.23157L12.3999 4.27901C12.8991 4.36805 13.7599 4.68137 14.1629 4.92079C15.269 5.57771 15.7479 6.44264 16.2351 8.66361C16.3778 9.31415 16.565 10.0503 16.6512 10.2996C16.7898 10.7007 17.3139 11.6378 17.74 12.2463C18.0469 12.6846 17.843 12.8923 17.1646 12.8324C16.1285 12.741 14.7251 11.7938 13.8197 10.5748Z" fill="#EF6077"/>
<path d="M31.7743 22.2776C26.3164 20.1285 24.3942 18.2631 24.3942 15.1156C24.3942 14.6524 24.4105 14.2734 24.4303 14.2734C24.4502 14.2734 24.6614 14.4263 24.8996 14.6132C26.0064 15.4813 27.2457 15.8521 30.6767 16.3416C32.6958 16.6296 33.832 16.8623 34.8801 17.2022C38.2113 18.2826 40.2723 20.4752 40.7639 23.4617C40.9068 24.3295 40.823 25.9568 40.5914 26.8144C40.4088 27.4919 39.8508 28.7129 39.7027 28.7599C39.6617 28.7728 39.6216 28.619 39.6109 28.4098C39.5549 27.2884 38.9755 26.1966 38.0024 25.3788C36.8958 24.449 35.4093 23.7087 31.7743 22.2776Z" fill="#EF6077"/>
<path d="M27.9429 23.1702C27.8745 22.7722 27.7559 22.264 27.6793 22.0408L27.5401 21.635L27.7987 21.9189C28.1567 22.3119 28.4396 22.8146 28.6793 23.4843C28.8623 23.9954 28.8829 24.1474 28.8815 24.978C28.8801 25.7934 28.8573 25.9643 28.6883 26.4244C28.4219 27.1498 28.0912 27.6642 27.5364 28.2164C26.5394 29.2088 25.2576 29.7581 23.4078 29.986C23.0863 30.0254 22.1492 30.0922 21.3253 30.1341C19.249 30.2397 17.8824 30.458 16.6545 30.8797C16.478 30.9402 16.3204 30.9772 16.3044 30.9616C16.2547 30.9131 17.0907 30.4258 17.7812 30.1004C18.7549 29.6416 19.7242 29.3915 21.8958 29.0378C22.9686 28.8629 24.0764 28.651 24.3577 28.5667C27.0144 27.7701 28.38 25.7145 27.9429 23.1702Z" fill="#EF6077"/>
<path d="M30.4449 27.5155C29.7198 25.991 29.5533 24.5191 29.9505 23.1464C29.9931 22.9997 30.0614 22.8796 30.1025 22.8796C30.1436 22.8796 30.3147 22.9701 30.4827 23.0806C30.817 23.3006 31.4873 23.6711 33.2726 24.6232C35.5007 25.8112 36.7712 26.7311 37.6351 27.782C38.3917 28.7024 38.8598 29.7508 39.0852 31.0292C39.2128 31.7531 39.1378 33.4954 38.9479 34.2244C38.3489 36.5235 36.9566 38.3293 34.9708 39.3831C34.6799 39.5375 34.4186 39.6643 34.3905 39.6649C34.362 39.6655 34.4682 39.4018 34.6261 39.0791C35.2939 37.7134 35.3701 36.3851 34.865 34.9065C34.5557 34.0011 33.9252 32.8964 32.6522 31.0292C31.1718 28.8586 30.809 28.2809 30.4449 27.5155Z" fill="#EF6077"/>
<path d="M9.94359 35.741C11.969 34.0686 14.4891 32.8805 16.7847 32.5157C17.774 32.3585 19.4221 32.4208 20.3382 32.6502C21.8067 33.0177 23.1203 33.841 23.8035 34.8217C24.4711 35.7801 24.7576 36.6154 25.0558 38.4739C25.1734 39.2071 25.3014 39.9431 25.3401 40.1098C25.5641 41.0731 25.9999 41.8428 26.54 42.2296C27.3978 42.8436 28.8748 42.8815 30.3279 42.3274C30.5745 42.2332 30.7885 42.1681 30.8035 42.1829C30.8565 42.2341 30.1246 42.713 29.6085 42.9652C28.9139 43.3045 28.3616 43.4357 27.6278 43.4357C26.297 43.4357 25.1921 42.7738 24.2702 41.4237C24.0887 41.158 23.681 40.3624 23.364 39.6553C22.3906 37.4841 21.9099 36.8228 20.7797 36.0989C19.7962 35.4692 18.5277 35.3563 17.5735 35.8138C16.32 36.4149 15.9702 37.9814 16.868 38.9741C17.2248 39.3688 17.8902 39.7089 18.4343 39.7751C19.4522 39.8991 20.327 39.1418 20.327 38.1367C20.327 37.4841 20.0705 37.1118 19.4248 36.8267C18.543 36.4375 17.5951 36.8926 17.5996 37.7027C17.6016 38.0482 17.7554 38.265 18.1095 38.4218C18.3367 38.5223 18.3419 38.5301 18.1567 38.4925C17.3476 38.3285 17.158 37.3746 17.8086 36.7412C18.5897 35.9812 20.2048 36.3165 20.7594 37.3544C20.9924 37.7903 21.0195 38.6584 20.8163 39.1824C20.3617 40.3558 19.036 40.9725 17.6912 40.6369C16.7756 40.4081 16.4027 40.1607 15.2988 39.0488C13.3806 37.1163 12.6359 36.7418 9.8705 36.3198L9.34058 36.2389L9.94359 35.741Z" fill="#EF6077"/>
<path fill-rule="evenodd" clip-rule="evenodd" d="M0.943421 1.15583C7.3494 8.75927 11.7615 11.8963 12.2518 12.5591C12.6566 13.1063 12.5043 13.5983 11.8108 13.9839C11.4251 14.1983 10.6322 14.4155 10.2352 14.4155C9.78615 14.4155 9.63197 14.2461 9.63197 14.2461C9.37162 14.0046 9.22499 14.0469 7.88798 11.726C6.03181 8.90932 4.47841 6.57276 4.43604 6.53363C4.33805 6.44318 4.33973 6.44622 7.69873 12.3237C8.24144 13.5488 7.80666 13.9984 7.80666 14.1729C7.80666 14.5278 7.70766 14.7144 7.25994 15.2028C6.51358 16.017 6.17994 16.932 5.93908 18.8255C5.6691 20.9481 4.90986 22.4474 2.80581 25.0136C1.57418 26.5157 1.37264 26.7911 1.06187 27.3965C0.670417 28.1589 0.562783 28.586 0.519158 29.5486C0.473049 30.5666 0.562851 31.2244 0.880863 32.1975C1.15927 33.0497 1.44988 33.6123 2.19281 34.7374C2.83394 35.7085 3.2031 36.4303 3.2031 36.7127C3.2031 36.9372 3.24697 36.9375 4.24046 36.7181C6.61802 36.1931 8.54859 35.2696 9.63435 34.1378C10.3063 33.4374 10.4641 33.0506 10.4692 32.091C10.4726 31.4631 10.45 31.3315 10.2765 30.9703C9.99397 30.3824 9.47968 29.8936 8.34616 29.136C6.86099 28.143 6.22662 27.3437 6.05142 26.2444C5.90766 25.3424 6.07442 24.706 6.89604 23.022C7.74646 21.2789 7.95721 20.5361 8.09977 18.7791C8.19185 17.6439 8.31936 17.1963 8.65285 16.8369C9.00069 16.4622 9.3138 16.3353 10.1746 16.2203C11.578 16.0328 12.4716 15.6778 13.2061 15.0158C13.8433 14.4416 14.1099 13.8883 14.1508 13.0554L14.1819 12.4241L13.8258 12.0181C12.5363 10.5477 0.0798474 0 0.000490816 0C-0.016462 0 0.407875 0.520157 0.943421 1.15583ZM3.92698 30.7006C4.21853 30.1955 4.06361 29.5465 3.57593 29.2293C3.11515 28.9298 2.39931 29.0709 2.39931 29.4613C2.39931 29.5805 2.46668 29.6672 2.61853 29.7437C2.87421 29.8722 2.89277 30.017 2.6916 30.3126C2.48788 30.6121 2.50432 30.8755 2.738 31.0543C3.11463 31.3427 3.64776 31.184 3.92698 30.7006Z" fill="#EF6077"/>
<path fill-rule="evenodd" clip-rule="evenodd" d="M15.0675 16.5514C14.4087 16.7493 13.7683 17.4321 13.57 18.1481C13.4491 18.5849 13.5177 19.3511 13.6989 19.5877C13.9915 19.9699 14.2745 20.0706 15.0408 20.0653C16.5412 20.0551 17.8454 19.4258 17.9971 18.6392C18.1214 17.9943 17.5485 17.1007 16.7595 16.7083C16.3523 16.5059 15.4865 16.4257 15.0675 16.5514ZM16.8214 17.8926C17.0528 17.5711 16.9515 17.2236 16.558 16.9887C15.8087 16.5412 14.6755 16.9115 14.6755 17.6038C14.6755 17.9484 15.2664 18.3244 15.8081 18.3244C16.1686 18.3244 16.662 18.1141 16.8214 17.8926Z" fill="#EF6077"/>
</svg>
